<svg width="33" height="32" viewBox="0 0 33 32" fill="none" xmlns="http://www.w3.org/2000/svg">
<path d="M17.125 2.87501C14.9678 2.87645 12.8478 3.43611 10.971 4.49956C9.09417 5.56301 7.52451 7.09406 6.41467 8.94381C5.30482 10.7936 4.69255 12.899 4.63741 15.0555C4.58227 17.2119 5.08614 19.346 6.1 21.25L4.625 27.875L11.25 26.4C12.9264 27.2957 14.7849 27.7973 16.6843 27.8667C18.5837 27.936 20.4739 27.5714 22.2111 26.8004C23.9484 26.0294 25.4869 24.8724 26.7098 23.4174C27.9327 21.9624 28.8076 20.2477 29.2681 18.4037C29.7287 16.5596 29.7626 14.6349 29.3674 12.7758C28.9722 10.9167 28.1582 9.17219 26.9874 7.67497C25.8166 6.17775 24.3198 4.96723 22.6108 4.13547C20.9018 3.30372 19.0256 2.87264 17.125 2.87501Z" stroke="#FBBF24" stroke-width="2" stroke-miterlimit="10"/>
<path d="M20.1002 17.1624L23.6752 20.7374C23.6752 20.7374 18.9127 25.4999 12.9627 19.4874C7.01273 13.4749 11.7127 8.7749 11.7127 8.7749L15.2877 12.3499L15.2252 12.4749C14.8944 13.1314 14.7802 13.876 14.8993 14.6015C15.0183 15.327 15.3644 15.996 15.8877 16.5124C16.4041 17.0357 17.0731 17.3818 17.7986 17.5009C18.5241 17.6199 19.2687 17.5058 19.9252 17.1749L20.1002 17.1624Z" stroke="#FBBF24" stroke-width="2" stroke-miterlimit="10"/>
</svg>
