<svg width="33" height="32" viewBox="0 0 33 32" fill="none" xmlns="http://www.w3.org/2000/svg">
<path d="M12.9248 15.9998C12.9248 16.4693 13.0173 16.9342 13.1969 17.3679C13.3766 17.8016 13.6399 18.1957 13.9719 18.5277C14.3039 18.8597 14.698 19.123 15.1317 19.3027C15.5654 19.4823 16.0303 19.5748 16.4998 19.5748C16.9693 19.5748 17.4342 19.4823 17.8679 19.3027C18.3016 19.123 18.6957 18.8597 19.0277 18.5277C19.3597 18.1957 19.623 17.8016 19.8027 17.3679C19.9823 16.9342 20.0748 16.4693 20.0748 15.9998C20.0748 15.5303 19.9823 15.0654 19.8027 14.6317C19.623 14.198 19.3597 13.8039 19.0277 13.4719C18.6957 13.1399 18.3016 12.8766 17.8679 12.6969C17.4342 12.5173 16.9693 12.4248 16.4998 12.4248C16.0303 12.4248 15.5654 12.5173 15.1317 12.6969C14.698 12.8766 14.3039 13.1399 13.9719 13.4719C13.6399 13.8039 13.3766 14.198 13.1969 14.6317C13.0173 15.0654 12.9248 15.5303 12.9248 15.9998Z" stroke="#FBBF24" stroke-width="2" stroke-miterlimit="10"/>
<path d="M20.075 11.2249V18.7249C20.075 19.2785 20.295 19.8095 20.6864 20.2009C21.0779 20.5924 21.6089 20.8124 22.1625 20.8124C22.5452 20.8162 22.9212 20.7128 23.2482 20.514C23.5751 20.3152 23.8399 20.0289 24.0125 19.6874C24.7065 18.2644 24.9797 16.6728 24.8 15.0999C24.6013 13.3662 23.8653 11.7381 22.695 10.4437C21.5247 9.14924 19.9788 8.25335 18.2738 7.88151C16.5689 7.50967 14.7903 7.68051 13.1873 8.37009C11.5843 9.05967 10.2372 10.2334 9.33468 11.727C8.43217 13.2205 8.01949 14.9589 8.15445 16.6987C8.28941 18.4385 8.96525 20.0925 10.0873 21.429C11.2093 22.7654 12.7213 23.7174 14.4115 24.1516C16.1017 24.5857 17.8853 24.4802 19.5125 23.8499" stroke="#FBBF24" stroke-width="2" stroke-miterlimit="10"/>
<path d="M8.15 2.875H24.85C24.85 2.875 29.625 2.875 29.625 7.65V24.35C29.625 24.35 29.625 29.125 24.85 29.125H8.15C8.15 29.125 3.375 29.125 3.375 24.35V7.65C3.375 7.65 3.375 2.875 8.15 2.875Z" stroke="#FBBF24" stroke-width="2" stroke-miterlimit="10"/>
</svg>
